<svg width="147" height="147" viewBox="0 0 147 147" fill="none" xmlns="http://www.w3.org/2000/svg">
<rect width="147" height="147" rx="40" fill="url(#paint0_radial_21_60)"/>
<rect width="147" height="147" rx="40" fill="url(#paint1_radial_21_60)"/>
<path d="M55.0044 73.5C55.0044 63.2831 63.2849 54.9985 73.5022 54.9985C83.7195 54.9985 92.0044 63.2831 92.0044 73.5C92.0044 83.7169 83.7195 92.0015 73.5022 92.0015C63.2849 92.0015 55.0044 83.7169 55.0044 73.5ZM45.0025 73.5C45.0025 89.2398 57.7618 101.999 73.5022 101.999C89.2426 101.999 102.002 89.2398 102.002 73.5C102.002 57.7602 89.2426 45.0014 73.5022 45.0014C57.7618 45.0014 45.0029 57.7593 45.0029 73.5M96.4704 43.8714C96.4698 45.1887 96.8599 46.4765 97.5913 47.572C98.3228 48.6675 99.3626 49.5216 100.579 50.0261C101.796 50.5307 103.135 50.6631 104.427 50.4066C105.719 50.1502 106.906 49.5164 107.838 48.5853C108.77 47.6543 109.405 46.4678 109.662 45.176C109.92 43.8842 109.789 42.545 109.285 41.3279C108.781 40.1107 107.928 39.0702 106.833 38.338C105.738 37.6057 104.451 37.2146 103.133 37.2141H103.131C101.365 37.2149 99.6718 37.9165 98.423 39.1647C97.1742 40.413 96.4719 42.1058 96.4704 43.8714ZM51.0793 118.676C45.6681 118.43 42.7269 117.528 40.7723 116.767C38.1811 115.758 36.3322 114.557 34.3883 112.616C32.4443 110.674 31.2411 108.827 30.2367 106.236C29.4748 104.283 28.5734 101.341 28.3274 95.9295C28.0583 90.0794 28.0046 88.3221 28.0046 73.5009C28.0046 58.6797 28.0628 56.9273 28.3274 51.0722C28.5738 45.6612 29.4819 42.725 30.2367 40.7657C31.2455 38.1745 32.447 36.3257 34.3883 34.3818C36.3295 32.438 38.1766 31.2348 40.7723 30.2304C42.726 29.4685 45.6681 28.5672 51.0793 28.3212C56.9297 28.0522 58.6871 27.9984 73.5022 27.9984C88.3173 27.9984 90.0765 28.0557 95.9318 28.3221C101.343 28.5685 104.279 29.4765 106.239 30.2313C108.83 31.2356 110.679 32.4415 112.623 34.3827C114.567 36.3239 115.766 38.1754 116.774 40.7665C117.536 42.7201 118.438 45.6621 118.684 51.0731C118.953 56.9281 119.006 58.6806 119.006 73.5018C119.006 88.3229 118.953 90.0754 118.684 95.9304C118.437 101.341 117.531 104.283 116.774 106.237C115.766 108.828 114.564 110.677 112.623 112.616C110.682 114.556 108.83 115.759 106.239 116.768C104.285 117.53 101.343 118.431 95.9318 118.677C90.0814 118.946 88.324 119 73.5022 119C58.6805 119 56.9279 118.946 51.0793 118.677M50.6198 18.3361C44.7112 18.6052 40.6738 19.542 37.1478 20.914C33.4984 22.3308 30.405 24.2315 27.3159 27.3156C24.2269 30.3996 22.3309 33.4934 20.9141 37.1471C19.5421 40.6751 18.6052 44.7102 18.3361 50.6185C18.0626 56.5361 18 58.428 18 73.5C18 88.572 18.0626 90.4639 18.3361 96.3815C18.6052 102.29 19.5421 106.325 20.9141 109.853C22.3309 113.502 24.2273 116.602 27.3159 119.684C30.4045 122.767 33.494 124.665 37.1478 126.086C40.6804 127.458 44.7112 128.395 50.6198 128.664C56.5407 128.933 58.4296 129 73.5022 129C88.5748 129 90.4668 128.937 96.3847 128.664C102.294 128.395 106.328 127.458 109.857 126.086C113.506 124.665 116.599 122.768 119.689 119.684C122.778 116.6 124.669 113.502 126.09 109.853C127.462 106.325 128.404 102.29 128.668 96.3815C128.937 90.4595 129 88.572 129 73.5C129 58.428 128.937 56.5361 128.668 50.6185C128.399 44.7097 127.462 40.6729 126.09 37.1471C124.669 33.4978 122.773 30.4045 119.689 27.3156C116.604 24.2267 113.506 22.3308 109.861 20.914C106.328 19.542 102.293 18.6007 96.3891 18.3361C90.4704 18.0657 88.5793 18 73.5089 18C58.4385 18 56.543 18.0626 50.622 18.3361" fill="white"/>
<defs>
<radialGradient id="paint0_radial_21_60" cx="0" cy="0" r="1" gradientUnits="userSpaceOnUse" gradientTransform="translate(9.51369 143.78) scale(186.635)">
<stop offset="0.09" stop-color="#FA8F21"/>
<stop offset="0.78" stop-color="#D82D7E"/>
</radialGradient>
<radialGradient id="paint1_radial_21_60" cx="0" cy="0" r="1" gradientUnits="userSpaceOnUse" gradientTransform="translate(101.822 139.06) scale(164.241)">
<stop offset="0.64" stop-color="#8C3AAA" stop-opacity="0"/>
<stop offset="1" stop-color="#8C3AAA"/>
</radialGradient>
</defs>
</svg>
