<svg xmlns="http://www.w3.org/2000/svg" xmlns:xlink="http://www.w3.org/1999/xlink" width="500" zoomAndPan="magnify" viewBox="0 0 375 374.999991" height="500" preserveAspectRatio="xMidYMid meet" version="1.0"><defs><clipPath id="489b950f58"><path d="M 3.746094 20 L 266 20 L 266 354.941406 L 3.746094 354.941406 Z M 3.746094 20 " clip-rule="nonzero"/></clipPath><clipPath id="a4107358f9"><path d="M 124 112 L 371.246094 112 L 371.246094 354.941406 L 124 354.941406 Z M 124 112 " clip-rule="nonzero"/></clipPath></defs><g clip-path="url(#489b950f58)"><path fill="#ffffff" d="M 12.382812 323.574219 C 18.03125 333.417969 25.894531 341.203125 35.203125 346.621094 C 44.589844 352.039062 55.277344 354.941406 66.648438 354.941406 L 175.324219 354.941406 C 186.621094 354.941406 197.304688 352.039062 206.691406 346.621094 C 216.003906 341.203125 223.863281 333.417969 229.585938 323.574219 L 262.632812 266.410156 C 267.59375 257.863281 264.695312 247.023438 256.144531 242.0625 C 247.597656 237.101562 236.761719 240.003906 231.800781 248.550781 L 198.753906 305.714844 L 198.753906 305.789062 C 196.234375 310.140625 192.878906 313.574219 188.984375 315.789062 C 185.09375 318 180.4375 319.222656 175.324219 319.222656 L 66.648438 319.222656 C 61.535156 319.222656 56.878906 318 53.0625 315.789062 L 52.984375 315.789062 C 49.09375 313.574219 45.734375 310.140625 43.21875 305.714844 C 40.699219 301.363281 39.476562 296.785156 39.476562 292.207031 C 39.476562 287.625 40.699219 282.972656 43.21875 278.695312 L 103.660156 174.0625 L 103.660156 173.988281 L 164.03125 69.277344 C 166.546875 64.929688 169.90625 61.570312 173.875 59.28125 C 177.765625 57.066406 182.347656 55.847656 187.535156 55.847656 C 192.34375 55.847656 196.769531 56.914062 200.433594 58.824219 C 200.664062 58.976562 200.890625 59.128906 201.121094 59.203125 C 205.089844 61.492188 208.523438 64.929688 210.964844 69.203125 C 215.851562 77.75 226.761719 80.648438 235.234375 75.765625 C 243.78125 70.882812 246.683594 59.96875 241.796875 51.496094 C 236.074219 41.574219 228.214844 33.714844 218.980469 28.371094 C 218.597656 28.144531 218.214844 27.914062 217.757812 27.761719 C 208.675781 22.722656 198.371094 20.054688 187.460938 20.054688 C 176.164062 20.054688 165.480469 22.953125 156.09375 28.371094 L 156.015625 28.371094 C 146.78125 33.714844 138.921875 41.574219 133.195312 51.496094 L 72.828125 156.054688 L 12.382812 260.839844 C 6.660156 270.761719 3.761719 281.445312 3.761719 292.207031 C 3.761719 302.890625 6.660156 313.574219 12.382812 323.574219 Z M 12.382812 323.574219 " fill-opacity="1" fill-rule="evenodd"/></g><g clip-path="url(#a4107358f9)"><path fill="#ffffff" d="M 281.867188 354.941406 L 308.347656 354.941406 C 319.644531 354.941406 330.328125 352.039062 339.714844 346.621094 C 349.101562 341.203125 356.964844 333.417969 362.609375 323.574219 C 362.839844 323.191406 363.070312 322.808594 363.222656 322.425781 C 368.5625 312.8125 371.234375 302.507812 371.234375 292.207031 C 371.234375 281.519531 368.335938 270.835938 362.609375 260.914062 L 294.917969 143.535156 C 289.191406 133.613281 281.332031 125.753906 272.097656 120.410156 L 272.019531 120.410156 C 262.632812 114.992188 251.949219 112.09375 240.652344 112.09375 C 229.359375 112.09375 218.675781 114.992188 209.285156 120.410156 C 199.976562 125.832031 192.113281 133.613281 186.390625 143.535156 L 126.710938 246.949219 C 125.105469 249.773438 124.34375 252.75 124.34375 255.800781 C 124.34375 261.984375 127.550781 267.9375 133.273438 271.21875 C 141.820312 276.101562 152.65625 273.203125 157.542969 264.65625 L 217.222656 161.242188 C 219.742188 156.890625 223.101562 153.457031 226.992188 151.246094 C 230.886719 149.03125 235.539062 147.808594 240.652344 147.808594 C 245.765625 147.808594 250.421875 149.03125 254.238281 151.246094 C 258.207031 153.535156 261.640625 156.96875 264.082031 161.242188 L 331.777344 278.621094 C 334.296875 282.972656 335.519531 287.550781 335.519531 292.207031 C 335.519531 296.554688 334.449219 300.90625 332.234375 305.027344 C 332.082031 305.257812 331.929688 305.484375 331.777344 305.714844 C 329.183594 310.140625 325.824219 313.574219 322.007812 315.789062 C 318.117188 318 313.460938 319.222656 308.347656 319.222656 L 281.867188 319.222656 C 272.019531 319.222656 264.007812 327.234375 264.007812 337.082031 C 264.007812 346.925781 271.945312 354.941406 281.867188 354.941406 Z M 281.867188 354.941406 " fill-opacity="1" fill-rule="evenodd"/></g></svg>