<svg xmlns="http://www.w3.org/2000/svg" xmlns:xlink="http://www.w3.org/1999/xlink" width="500" zoomAndPan="magnify" viewBox="0 0 375 374.999991" height="500" preserveAspectRatio="xMidYMid meet" version="1.0"><defs><clipPath id="b9e06ebef6"><path d="M 18.75 30 L 259 30 L 259 337.5 L 18.75 337.5 Z M 18.75 30 " clip-rule="nonzero"/></clipPath><clipPath id="91269e4f9f"><path d="M 129 114 L 356.25 114 L 356.25 337.5 L 129 337.5 Z M 129 114 " clip-rule="nonzero"/></clipPath></defs><g clip-path="url(#b9e06ebef6)"><path fill="#29292b" d="M 26.683594 308.695312 C 31.871094 317.734375 39.089844 324.882812 47.640625 329.859375 C 56.261719 334.835938 66.070312 337.5 76.515625 337.5 L 176.320312 337.5 C 186.695312 337.5 196.507812 334.835938 205.128906 329.859375 C 213.679688 324.882812 220.898438 317.734375 226.152344 308.695312 L 256.5 256.199219 C 261.058594 248.347656 258.394531 238.394531 250.542969 233.839844 C 242.695312 229.285156 232.742188 231.945312 228.1875 239.796875 L 197.839844 292.292969 L 197.839844 292.363281 C 195.523438 296.359375 192.441406 299.511719 188.867188 301.542969 C 185.292969 303.578125 181.015625 304.699219 176.320312 304.699219 L 76.515625 304.699219 C 71.820312 304.699219 67.542969 303.578125 64.039062 301.542969 L 63.96875 301.542969 C 60.394531 299.511719 57.3125 296.359375 55 292.292969 C 52.683594 288.296875 51.5625 284.09375 51.5625 279.886719 C 51.5625 275.683594 52.683594 271.40625 55 267.480469 L 110.507812 171.390625 L 110.507812 171.320312 L 165.949219 75.160156 C 168.261719 71.164062 171.34375 68.082031 174.988281 65.976562 C 178.5625 63.945312 182.769531 62.824219 187.535156 62.824219 C 191.949219 62.824219 196.015625 63.804688 199.378906 65.558594 C 199.589844 65.699219 199.800781 65.839844 200.011719 65.910156 C 203.65625 68.011719 206.808594 71.164062 209.050781 75.089844 C 213.539062 82.941406 223.558594 85.601562 231.339844 81.117188 C 239.191406 76.632812 241.851562 66.609375 237.367188 58.828125 C 232.109375 49.71875 224.890625 42.5 216.410156 37.59375 C 216.0625 37.382812 215.710938 37.171875 215.289062 37.03125 C 206.949219 32.40625 197.488281 29.953125 187.464844 29.953125 C 177.09375 29.953125 167.28125 32.617188 158.660156 37.59375 L 158.589844 37.59375 C 150.109375 42.5 142.890625 49.71875 137.632812 58.828125 L 82.191406 154.851562 L 26.683594 251.082031 C 21.425781 260.191406 18.761719 270.003906 18.761719 279.886719 C 18.761719 289.699219 21.425781 299.511719 26.683594 308.695312 Z M 26.683594 308.695312 " fill-opacity="1" fill-rule="evenodd"/></g><g clip-path="url(#91269e4f9f)"><path fill="#29292b" d="M 274.164062 337.5 L 298.484375 337.5 C 308.859375 337.5 318.671875 334.835938 327.289062 329.859375 C 335.910156 324.882812 343.128906 317.734375 348.316406 308.695312 C 348.527344 308.34375 348.738281 307.992188 348.878906 307.640625 C 353.785156 298.8125 356.238281 289.347656 356.238281 279.886719 C 356.238281 270.074219 353.574219 260.261719 348.316406 251.152344 L 286.148438 143.355469 C 280.890625 134.246094 273.671875 127.023438 265.191406 122.117188 L 265.121094 122.117188 C 256.5 117.144531 246.6875 114.480469 236.316406 114.480469 C 225.941406 114.480469 216.132812 117.144531 207.511719 122.117188 C 198.960938 127.09375 191.742188 134.246094 186.484375 143.355469 L 131.675781 238.324219 C 130.203125 240.917969 129.503906 243.652344 129.503906 246.457031 C 129.503906 252.132812 132.445312 257.597656 137.703125 260.613281 C 145.550781 265.097656 155.503906 262.4375 159.992188 254.585938 L 214.800781 159.617188 C 217.113281 155.621094 220.195312 152.46875 223.769531 150.433594 C 227.34375 148.402344 231.621094 147.28125 236.316406 147.28125 C 241.011719 147.28125 245.289062 148.402344 248.792969 150.433594 C 252.4375 152.539062 255.589844 155.691406 257.832031 159.617188 L 320 267.410156 C 322.316406 271.40625 323.4375 275.613281 323.4375 279.886719 C 323.4375 283.882812 322.453125 287.878906 320.421875 291.664062 C 320.28125 291.871094 320.140625 292.082031 320 292.292969 C 317.617188 296.359375 314.535156 299.511719 311.03125 301.542969 C 307.457031 303.578125 303.179688 304.699219 298.484375 304.699219 L 274.164062 304.699219 C 265.121094 304.699219 257.761719 312.058594 257.761719 321.097656 C 257.761719 330.140625 265.050781 337.5 274.164062 337.5 Z M 274.164062 337.5 " fill-opacity="1" fill-rule="evenodd"/></g></svg>