<svg width="163" height="164" viewBox="0 0 163 164" fill="none" xmlns="http://www.w3.org/2000/svg">
<g filter="url(#filter0_f_29_2)">
<path d="M48.566 132.648L50.801 133.972C60.188 139.543 70.951 142.49 81.927 142.495H81.95C115.657 142.495 143.089 115.069 143.103 81.36C143.109 65.025 136.754 49.664 125.208 38.109C119.545 32.4104 112.808 27.8916 105.387 24.8143C97.9657 21.7369 90.0079 20.1621 81.974 20.181C48.241 20.181 20.808 47.604 20.796 81.311C20.7794 92.821 24.0206 104.101 30.145 113.846L31.6 116.158L25.421 138.716L48.566 132.648ZM7.755 156.192L18.194 118.078C11.756 106.924 8.369 94.27 8.373 81.306C8.39 40.75 41.394 7.756 81.951 7.756C101.632 7.766 120.105 15.425 133.998 29.328C147.891 43.231 155.535 61.711 155.528 81.365C155.51 121.918 122.501 154.918 81.95 154.918H81.918C69.605 154.913 57.506 151.824 46.759 145.964L7.755 156.192Z" fill="#B3B3B3"/>
</g>
<path d="M7 155.436L17.439 117.322C10.9899 106.141 7.60242 93.4575 7.618 80.55C7.635 39.994 40.639 7 81.196 7C100.877 7.01 119.35 14.669 133.243 28.572C147.136 42.475 154.78 60.955 154.773 80.609C154.755 121.162 121.746 154.162 81.195 154.162H81.163C68.85 154.157 56.751 151.068 46.004 145.208L7 155.436Z" fill="white"/>
<path d="M81.218 19.425C47.485 19.425 20.052 46.848 20.04 80.555C20.0234 92.065 23.2646 103.345 29.389 113.09L30.844 115.403L24.665 137.961L47.811 131.892L50.046 133.216C59.433 138.787 70.196 141.733 81.172 141.739H81.195C114.902 141.739 142.335 114.313 142.348 80.604C142.373 72.5696 140.805 64.6099 137.733 57.1858C134.662 49.7618 130.148 43.0207 124.453 37.353C118.79 31.6543 112.053 27.1355 104.631 24.0581C97.21 20.9807 89.252 19.406 81.218 19.425Z" fill="url(#paint0_linear_29_2)"/>
<path fill-rule="evenodd" clip-rule="evenodd" d="M62.806 49.801C61.428 46.74 59.978 46.678 58.669 46.625L55.145 46.582C53.919 46.582 51.927 47.042 50.243 48.882C48.559 50.722 43.808 55.169 43.808 64.214C43.808 73.259 50.396 81.999 51.314 83.227C52.232 84.455 64.032 103.608 82.719 110.977C98.248 117.101 101.408 115.883 104.78 115.577C108.152 115.271 115.657 111.13 117.188 106.837C118.719 102.544 118.72 98.866 118.261 98.097C117.802 97.328 116.576 96.871 114.736 95.951C112.896 95.031 103.859 90.584 102.174 89.97C100.489 89.356 99.264 89.051 98.037 90.891C96.81 92.731 93.291 96.87 92.218 98.097C91.145 99.324 90.074 99.478 88.234 98.559C86.394 97.64 80.474 95.698 73.45 89.435C67.985 84.562 64.296 78.544 63.222 76.705C62.148 74.866 63.108 73.87 64.03 72.954C64.855 72.13 65.868 70.807 66.789 69.734C67.71 68.661 68.013 67.894 68.625 66.669C69.237 65.444 68.932 64.368 68.472 63.449C68.012 62.53 64.44 53.437 62.806 49.801Z" fill="white"/>
<defs>
<filter id="filter0_f_29_2" x="0.693005" y="0.693997" width="161.897" height="162.56" filterUnits="userSpaceOnUse" color-interpolation-filters="sRGB">
<feFlood flood-opacity="0" result="BackgroundImageFix"/>
<feBlend mode="normal" in="SourceGraphic" in2="BackgroundImageFix" result="shape"/>
<feGaussianBlur stdDeviation="3.531" result="effect1_foregroundBlur_29_2"/>
</filter>
<linearGradient id="paint0_linear_29_2" x1="79.949" y1="26.765" x2="80.569" y2="131.29" gradientUnits="userSpaceOnUse">
<stop stop-color="#57D163"/>
<stop offset="1" stop-color="#23B33A"/>
</linearGradient>
</defs>
</svg>
