<svg width="182" height="128" viewBox="0 0 182 128" fill="none" xmlns="http://www.w3.org/2000/svg">
<path d="M177.981 19.9642C175.856 12.1117 169.724 5.97761 161.873 3.85275C147.75 0 90.9064 0 90.9064 0C90.9064 0 34.0631 0.11675 19.9398 3.9695C12.0892 6.09437 5.95661 12.2284 3.83226 20.081C-0.439739 45.1822 -2.09718 83.4294 3.94898 107.527C6.07333 115.379 12.2059 121.513 20.0565 123.638C34.1798 127.491 91.0231 127.491 91.0231 127.491C91.0231 127.491 147.866 127.491 161.99 123.638C169.84 121.513 175.973 115.379 178.097 107.527C182.603 82.3904 183.992 44.1665 177.981 19.9642Z" fill="#FF0000"/>
<path d="M72.8146 91.0649L119.97 63.7454L72.8146 36.426V91.0649Z" fill="white"/>
</svg>
